<svg xmlns:xlink="http://www.w3.org/1999/xlink" width="9.783ex" height="6.176ex" style="font-size: 15px; vertical-align: -2.505ex;" viewBox="0 -1580.7 4212.1 2659.1" role="img" focusable="false" xmlns="http://www.w3.org/2000/svg">
<defs>
<path stroke-width="1" id="E1-MJMAIN-28" d="M94 250Q94 319 104 381T127 488T164 576T202 643T244 695T277 729T302 750H315H319Q333 750 333 741Q333 738 316 720T275 667T226 581T184 443T167 250T184 58T225 -81T274 -167T316 -220T333 -241Q333 -250 318 -250H315H302L274 -226Q180 -141 137 -14T94 250Z"></path>
<path stroke-width="1" id="E1-MJMATHI-3B4" d="M195 609Q195 656 227 686T302 717Q319 716 351 709T407 697T433 690Q451 682 451 662Q451 644 438 628T403 612Q382 612 348 641T288 671T249 657T235 628Q235 584 334 463Q401 379 401 292Q401 169 340 80T205 -10H198Q127 -10 83 36T36 153Q36 286 151 382Q191 413 252 434Q252 435 245 449T230 481T214 521T201 566T195 609ZM112 130Q112 83 136 55T204 27Q233 27 256 51T291 111T309 178T316 232Q316 267 309 298T295 344T269 400L259 396Q215 381 183 342T137 256T118 179T112 130Z"></path>
<path stroke-width="1" id="E1-MJMAIN-50" d="M130 622Q123 629 119 631T103 634T60 637H27V683H214Q237 683 276 683T331 684Q419 684 471 671T567 616Q624 563 624 489Q624 421 573 372T451 307Q429 302 328 301H234V181Q234 62 237 58Q245 47 304 46H337V0H326Q305 3 182 3Q47 3 38 0H27V46H60Q102 47 111 49T130 61V622ZM507 488Q507 514 506 528T500 564T483 597T450 620T397 635Q385 637 307 637H286Q237 637 234 628Q231 624 231 483V342H302H339Q390 342 423 349T481 382Q507 411 507 488Z"></path>
<path stroke-width="1" id="E1-MJMAIN-2E" d="M78 60Q78 84 95 102T138 120Q162 120 180 104T199 61Q199 36 182 18T139 0T96 17T78 60Z"></path>
<path stroke-width="1" id="E1-MJMAIN-44" d="M130 622Q123 629 119 631T103 634T60 637H27V683H228Q399 682 419 682T461 676Q504 667 546 641T626 573T685 470T708 336Q708 210 634 116T442 3Q429 1 228 0H27V46H60Q102 47 111 49T130 61V622ZM593 338Q593 439 571 501T493 602Q439 637 355 637H322H294Q238 637 234 628Q231 624 231 344Q231 62 232 59Q233 49 248 48T339 46H350Q456 46 515 95Q561 133 577 191T593 338Z"></path>
<path stroke-width="1" id="E1-MJMAIN-2195" d="M27 492Q17 492 17 511Q17 515 17 517T17 522T19 525T20 528T22 530T26 531T30 532T36 534Q80 545 120 572T180 627Q210 664 223 701T238 755T250 772T261 762Q261 757 264 741T282 691T319 628Q352 589 390 566T454 536L479 529Q483 525 483 511Q483 491 472 491Q467 491 458 494Q342 526 277 623L270 633V-133L277 -123Q307 -77 353 -45T430 -2T473 8Q483 8 483 -11Q483 -15 483 -17T483 -22T481 -25T480 -28T478 -30T474 -31T470 -32T464 -34Q407 -49 364 -84T300 -157T270 -223T261 -262Q259 -272 250 -272Q242 -272 239 -255T223 -201T180 -127Q169 -112 155 -99T125 -76T95 -58T67 -45T44 -36T27 -31L21 -29Q17 -25 17 -11Q17 9 28 9Q33 9 42 6Q158 -26 223 -123L230 -133V633L223 623Q192 577 146 545T70 502T27 492Z"></path>
<path stroke-width="1" id="E1-MJMAIN-2194" d="M263 479Q267 501 271 506T288 511Q308 511 308 500Q308 493 303 475Q293 438 278 406T246 352T215 315T185 287T165 270H835Q729 349 696 475Q691 493 691 500Q691 511 711 511Q720 511 723 510T729 506T732 497T735 481T743 456Q765 389 816 336T935 261Q944 258 944 250Q944 244 939 241T915 231T877 212Q836 186 806 152T761 85T740 35T732 4Q730 -6 727 -8T711 -11Q691 -11 691 0Q691 7 696 25Q728 151 835 230H165Q167 228 182 216T211 189T244 152T277 96T303 25Q308 7 308 0Q308 -11 288 -11Q281 -11 278 -11T272 -7T267 2T263 21Q245 94 195 151T73 236Q58 242 55 247Q55 254 59 257T73 264Q144 292 194 349T263 479Z"></path>
<path stroke-width="1" id="E1-MJMAIN-29" d="M60 749L64 750Q69 750 74 750H86L114 726Q208 641 251 514T294 250Q294 182 284 119T261 12T224 -76T186 -143T145 -194T113 -227T90 -246Q87 -249 86 -250H74Q66 -250 63 -250T58 -247T55 -238Q56 -237 66 -225Q221 -64 221 250T66 725Q56 737 55 738Q55 746 60 749Z"></path>
<path stroke-width="1" id="E1-MJSZ3-28" d="M701 -940Q701 -943 695 -949H664Q662 -947 636 -922T591 -879T537 -818T475 -737T412 -636T350 -511T295 -362T250 -186T221 17T209 251Q209 962 573 1361Q596 1386 616 1405T649 1437T664 1450H695Q701 1444 701 1441Q701 1436 681 1415T629 1356T557 1261T476 1118T400 927T340 675T308 359Q306 321 306 250Q306 -139 400 -430T690 -924Q701 -936 701 -940Z"></path>
<path stroke-width="1" id="E1-MJSZ3-29" d="M34 1438Q34 1446 37 1448T50 1450H56H71Q73 1448 99 1423T144 1380T198 1319T260 1238T323 1137T385 1013T440 864T485 688T514 485T526 251Q526 134 519 53Q472 -519 162 -860Q139 -885 119 -904T86 -936T71 -949H56Q43 -949 39 -947T34 -937Q88 -883 140 -813Q428 -430 428 251Q428 453 402 628T338 922T245 1146T145 1309T46 1425Q44 1427 42 1429T39 1433T36 1436L34 1438Z"></path>
</defs>
<g stroke="currentColor" fill="currentColor" stroke-width="0" transform="matrix(1 0 0 -1 0 0)">
 <use xlink:href="#E1-MJSZ3-28"></use>
<g transform="translate(736,0)">
 <use xlink:href="#E1-MJMATHI-3B4" x="0" y="0"></use>
<g transform="translate(444,-150)">
 <use transform="scale(0.707)" xlink:href="#E1-MJMAIN-50" x="0" y="0"></use>
 <use transform="scale(0.707)" xlink:href="#E1-MJMAIN-2E" x="681" y="0"></use>
 <use transform="scale(0.707)" xlink:href="#E1-MJMAIN-44" x="960" y="0"></use>
 <use transform="scale(0.707)" xlink:href="#E1-MJMAIN-2E" x="1724" y="0"></use>
</g>
 <use xlink:href="#E1-MJMAIN-2195" x="2238" y="0"></use>
 <use xlink:href="#E1-MJMAIN-2194" x="869" y="-965"></use>
</g>
 <use xlink:href="#E1-MJSZ3-29" x="3475" y="-1"></use>
</g>
</svg>